STARTFONT 2.1
FONT HAN-GB2312
SIZE 20 72 72
FONTBOUNDINGBOX 5 20 0 0
STARTPROPERTIES 1
BITCOUNT 8
ENDPROPERTIES
CHARS 83
STARTCHAR  00E0
ENCODING  224
SWIDTH  1000 0
DWIDTH  5 0
BBX  5 18 0 0
BITMAP
0000000000
00A0C00000
0010300000
40FFFFFF10
104080FF10
40FFFFFF10
40FF60FF10
40FF40FF10
40FF40FF10
40FF40FF10
40FF40FF10
40FF40FF10
40FF40FF10
40FF40FF10
40FF40FF10
40FF40FF10
40FF80FF10
40FFFFFF10
ENDCHAR
STARTCHAR  00E1
ENCODING  225
SWIDTH  1000 0
DWIDTH  5 0
BBX  5 18 0 0
BITMAP
0000000000
0000E08000
0010401000
40FFFFFF10
104080FF10
40FFFFFF10
40FF60FF10
40FF40FF10
40FF40FF10
40FF40FF10
40FF40FF10
40FF40FF10
40FF40FF10
40FF40FF10
40FF40FF10
40FF40FF10
40FF80FF10
40FFFFFF10
ENDCHAR
STARTCHAR  00E8
ENCODING  232
SWIDTH  1000 0
DWIDTH  5 0
BBX  5 18 0 0
BITMAP
0000000000
00A0C00000
0010300000
40FFFFFF10
40FF80FF10
40FF40FF10
40FFFFFF10
40FF406000
40FF40FF10
40FF40FF10
40FF40FF10
40FF40FF10
40FF40FF10
40FF40FF10
40FF40FF10
40FF40FF10
40FF80FF10
40FFFFFF10
ENDCHAR
STARTCHAR  00E9
ENCODING  233
SWIDTH  1000 0
DWIDTH  5 0
BBX  5 18 0 0
BITMAP
0000000000
0000E08000
0010401000
40FFFFFF10
40FF80FF10
40FF40FF10
40FFFFFF10
40FF406000
40FF40FF10
40FF40FF10
40FF40FF10
40FF40FF10
40FF40FF10
40FF40FF10
40FF40FF10
40FF40FF10
40FF80FF10
40FFFFFF10
ENDCHAR
STARTCHAR  00EA
ENCODING  234
SWIDTH  1000 0
DWIDTH  5 0
BBX  5 18 0 0
BITMAP
0000100000
00E0FFA000
1080408000
40FFFFFF10
40FF80FF10
40FF40FF10
40FFFFFF10
40FF406000
40FF40FF10
40FF40FF10
40FF40FF10
40FF40FF10
40FF40FF10
40FF40FF10
40FF40FF10
40FF40FF10
40FF80FF10
40FFFFFF10
ENDCHAR
STARTCHAR  00EC
ENCODING  236
SWIDTH  1000 0
DWIDTH  3 0
BBX  3 18 0 0
BITMAP
000000
A0A000
103000
40FF10
40FF10
40FF10
40FF10
40FF10
40FF10
40FF10
40FF10
40FF10
40FF10
40FF10
40FF10
40FF10
40FF10
40FF10
ENDCHAR
STARTCHAR  00ED
ENCODING  237
SWIDTH  1000 0
DWIDTH  3 0
BBX  3 18 0 0
BITMAP
000000
00E060
104000
40FF10
40FF10
40FF10
40FF10
40FF10
40FF10
40FF10
40FF10
40FF10
40FF10
40FF10
40FF10
40FF10
40FF10
40FF10
ENDCHAR
STARTCHAR  00F2
ENCODING  242
SWIDTH  1000 0
DWIDTH  5 0
BBX  5 18 0 0
BITMAP
0000000000
00A0C00000
0010300000
40FFFFFF10
40FF80FF10
40FF40FF10
40FF40FF10
40FF40FF10
40FF40FF10
40FF40FF10
40FF40FF10
40FF40FF10
40FF40FF10
40FF40FF10
40FF40FF10
40FF40FF10
40FF80FF10
40FFFFFF10
ENDCHAR
STARTCHAR  00F3
ENCODING  243
SWIDTH  1000 0
DWIDTH  5 0
BBX  5 18 0 0
BITMAP
0000000000
0000E08000
0010401000
40FFFFFF10
40FF80FF10
40FF40FF10
40FF40FF10
40FF40FF10
40FF40FF10
40FF40FF10
40FF40FF10
40FF40FF10
40FF40FF10
40FF40FF10
40FF40FF10
40FF40FF10
40FF80FF10
40FFFFFF10
ENDCHAR
STARTCHAR  00F9
ENCODING  249
SWIDTH  1000 0
DWIDTH  5 0
BBX  5 18 0 0
BITMAP
0000000000
00A0C00000
0010300000
40FF40FF10
40FF40FF10
40FF40FF10
40FF40FF10
40FF40FF10
40FF40FF10
40FF40FF10
40FF40FF10
40FF40FF10
40FF40FF10
40FF40FF10
40FF40FF10
40FF40FF10
40FF80FF10
40FFFFFF10
ENDCHAR
STARTCHAR  00FA
ENCODING  250
SWIDTH  1000 0
DWIDTH  5 0
BBX  5 18 0 0
BITMAP
0000000000
0000E08000
0010401000
40FF40FF10
40FF40FF10
40FF40FF10
40FF40FF10
40FF40FF10
40FF40FF10
40FF40FF10
40FF40FF10
40FF40FF10
40FF40FF10
40FF40FF10
40FF40FF10
40FF40FF10
40FF80FF10
40FFFFFF10
ENDCHAR
STARTCHAR  00FC
ENCODING  252
SWIDTH  1000 0
DWIDTH  5 0
BBX  5 18 0 0
BITMAP
0010001000
40FF40FF10
1040104000
40FF40FF10
40FF40FF10
40FF40FF10
40FF40FF10
40FF40FF10
40FF40FF10
40FF40FF10
40FF40FF10
40FF40FF10
40FF40FF10
40FF40FF10
40FF40FF10
40FF40FF10
40FF80FF10
40FFFFFF10
ENDCHAR
STARTCHAR  01CE
ENCODING  462
SWIDTH  1000 0
DWIDTH  5 0
BBX  5 18 0 0
BITMAP
1040104000
00E0F0A000
0000000000
40FFFFFF10
104080FF10
40FFFFFF10
40FF60FF10
40FF40FF10
40FF40FF10
40FF40FF10
40FF40FF10
40FF40FF10
40FF40FF10
40FF40FF10
40FF40FF10
40FF40FF10
40FF80FF10
40FFFFFF10
ENDCHAR
STARTCHAR  0401
ENCODING  1025
SWIDTH  1000 0
DWIDTH  5 0
BBX  5 20 0 0
BITMAP
0010001000
40FF40FF10
40FFFFFF10
40FF80FF10
40FF40FF10
40FFFFFF10
40FF406000
40FF40FF10
40FF40FF10
40FF40FF10
40FF40FF10
40FF40FF10
40FF40FF10
40FF40FF10
40FF40FF10
40FF40FF10
40FF40FF10
40FF40FF10
40FF80FF10
40FFFFFF10
ENDCHAR
STARTCHAR  0410
ENCODING  1040
SWIDTH  1000 0
DWIDTH  5 0
BBX  5 18 0 0
BITMAP
40FFFFFF10
40FF80FF10
40FF40FF10
40FFFFFF10
40FF80FF10
40FF40FF10
40FF40FF10
40FF40FF10
40FF40FF10
40FF40FF10
40FF40FF10
40FF40FF10
40FF40FF10
40FF40FF10
40FF40FF10
40FF40FF10
40FF40FF10
40FF40FF10
ENDCHAR
STARTCHAR  0411
ENCODING  1041
SWIDTH  1000 0
DWIDTH  5 0
BBX  5 18 0 0
BITMAP
40FFFFFF10
40FF404000
40FF100000
40FFFFFF10
40FF80FF10
40FF40FF10
40FF40FF10
40FF40FF10
40FF40FF10
40FF40FF10
40FF40FF10
40FF40FF10
40FF40FF10
40FF40FF10
40FF40FF10
40FF40FF10
40FF80FF10
40FFFFFF10
ENDCHAR
STARTCHAR  0412
ENCODING  1042
SWIDTH  1000 0
DWIDTH  5 0
BBX  5 18 0 0
BITMAP
40FFFFFF10
40FF80FF10
40FF40FF10
40FFFFFF10
40FF80FF10
40FF40FF10
40FF40FF10
40FF40FF10
40FF40FF10
40FF40FF10
40FF40FF10
40FF40FF10
40FF40FF10
40FF40FF10
40FF40FF10
40FF40FF10
40FF80FF10
40FFFFFF10
ENDCHAR
STARTCHAR  0413
ENCODING  1043
SWIDTH  1000 0
DWIDTH  4 0
BBX  3 18 0 0
BITMAP
40FFFF
40FF40
40FF10
40FF10
40FF10
40FF10
40FF10
40FF10
40FF10
40FF10
40FF10
40FF10
40FF10
40FF10
40FF10
40FF10
40FF10
40FF10
ENDCHAR
STARTCHAR  0414
ENCODING  1044
SWIDTH  1000 0
DWIDTH  6 0
BBX  5 19 1 -1
BITMAP
40FFFFFF10
40FF60FF10
40FF40FF10
40FF40FF10
40FF40FF10
40FF40FF10
40FF40FF10
40FF40FF10
40FF40FF10
40FF40FF10
40FF40FF10
40FF40FF10
40FF40FF10
40FF40FF10
40FF40FF10
40FF40FF10
60FF60FF10
FFFFFFFF10
40FF40FF10
ENDCHAR
STARTCHAR  0415
ENCODING  1045
SWIDTH  1000 0
DWIDTH  5 0
BBX  5 18 0 0
BITMAP
40FFFFFF10
40FF60E000
40FF100000
40FFFFFF10
40FF406000
40FF40FF10
40FF40FF10
40FF40FF10
40FF40FF10
40FF40FF10
40FF40FF10
40FF40FF10
40FF40FF10
40FF40FF10
40FF40FF10
40FF40FF10
40FF80FF10
40FFFFFF10
ENDCHAR
STARTCHAR  0416
ENCODING  1046
SWIDTH  1000 0
DWIDTH  7 0
BBX  7 18 0 0
BITMAP
40FF40FF40FF10
40FF40FF40FF10
40FF40FF40FF10
40FFFFFFFFFF10
40FF80FF80FF10
40FF40FF40FF10
40FF40FF40FF10
40FF40FF40FF10
40FF40FF40FF10
40FF40FF40FF10
40FF40FF40FF10
40FF40FF40FF10
40FF40FF40FF10
40FF40FF40FF10
40FF40FF40FF10
40FF40FF40FF10
40FF40FF40FF10
40FF40FF40FF10
ENDCHAR
STARTCHAR  0417
ENCODING  1047
SWIDTH  1000 0
DWIDTH  5 0
BBX  5 18 0 0
BITMAP
40FFFFFF10
104060FF10
000040FF10
40FFFFFF10
106060FF10
40FF40FF10
40FF40FF10
40FF40FF10
40FF40FF10
40FF40FF10
40FF40FF10
40FF40FF10
40FF40FF10
40FF40FF10
40FF40FF10
40FF40FF10
40FF80FF10
40FFFFFF10
ENDCHAR
STARTCHAR  0418
ENCODING  1048
SWIDTH  1000 0
DWIDTH  5 0
BBX  5 18 0 0
BITMAP
40FF40FF10
40FF40FF10
40FF40FF10
40FFE0FF10
40FFFFFF10
40FFA0FF10
40FF40FF10
40FF40FF10
40FF40FF10
40FF40FF10
40FF40FF10
40FF40FF10
40FF40FF10
40FF40FF10
40FF40FF10
40FF40FF10
40FF40FF10
40FF40FF10
ENDCHAR
STARTCHAR  0419
ENCODING  1049
SWIDTH  1000 0
DWIDTH  5 0
BBX  5 20 0 0
BITMAP
1040104000
00E0F0A000
40FF40FF10
40FF40FF10
40FF40FF10
40FFE0FF10
40FFFFFF10
40FFA0FF10
40FF40FF10
40FF40FF10
40FF40FF10
40FF40FF10
40FF40FF10
40FF40FF10
40FF40FF10
40FF40FF10
40FF40FF10
40FF40FF10
40FF40FF10
40FF40FF10
ENDCHAR
STARTCHAR  041A
ENCODING  1050
SWIDTH  1000 0
DWIDTH  5 0
BBX  5 18 0 0
BITMAP
40FF40FF10
40FF40FF10
40FF40FF10
40FFFFFF10
40FF404000
40FFFFFF10
40FF60FF10
40FF40FF10
40FF40FF10
40FF40FF10
40FF40FF10
40FF40FF10
40FF40FF10
40FF40FF10
40FF40FF10
40FF40FF10
40FF40FF10
40FF40FF10
ENDCHAR
STARTCHAR  041B
ENCODING  1051
SWIDTH  1000 0
DWIDTH  5 0
BBX  5 18 0 0
BITMAP
40FFFFFF10
40FF80FF10
40FF40FF10
40FF40FF10
40FF40FF10
40FF40FF10
40FF40FF10
40FF40FF10
40FF40FF10
40FF40FF10
40FF40FF10
40FF40FF10
40FF40FF10
40FF40FF10
40FF40FF10
40FF40FF10
60FF40FF10
E0FF40FF10
ENDCHAR
STARTCHAR  041C
ENCODING  1052
SWIDTH  1000 0
DWIDTH  7 0
BBX  7 18 0 0
BITMAP
40FFFFFFFFFF10
40FF80FF80FF10
40FF40FF40FF10
40FF40FF40FF10
40FF40FF40FF10
40FF40FF40FF10
40FF40FF40FF10
40FF40FF40FF10
40FF40FF40FF10
40FF40FF40FF10
40FF40FF40FF10
40FF40FF40FF10
40FF40FF40FF10
40FF40FF40FF10
40FF40FF40FF10
40FF40FF40FF10
40FF40FF40FF10
40FF40FF40FF10
ENDCHAR
STARTCHAR  041D
ENCODING  1053
SWIDTH  1000 0
DWIDTH  5 0
BBX  5 18 0 0
BITMAP
40FF40FF10
40FF40FF10
40FF40FF10
40FFFFFF10
40FF80FF10
40FF40FF10
40FF40FF10
40FF40FF10
40FF40FF10
40FF40FF10
40FF40FF10
40FF40FF10
40FF40FF10
40FF40FF10
40FF40FF10
40FF40FF10
40FF40FF10
40FF40FF10
ENDCHAR
STARTCHAR  041E
ENCODING  1054
SWIDTH  1000 0
DWIDTH  5 0
BBX  5 18 0 0
BITMAP
40FFFFFF10
40FF80FF10
40FF40FF10
40FF40FF10
40FF40FF10
40FF40FF10
40FF40FF10
40FF40FF10
40FF40FF10
40FF40FF10
40FF40FF10
40FF40FF10
40FF40FF10
40FF40FF10
40FF40FF10
40FF40FF10
40FF80FF10
40FFFFFF10
ENDCHAR
STARTCHAR  041F
ENCODING  1055
SWIDTH  1000 0
DWIDTH  5 0
BBX  5 18 0 0
BITMAP
40FFFFFF10
40FF80FF10
40FF40FF10
40FF40FF10
40FF40FF10
40FF40FF10
40FF40FF10
40FF40FF10
40FF40FF10
40FF40FF10
40FF40FF10
40FF40FF10
40FF40FF10
40FF40FF10
40FF40FF10
40FF40FF10
40FF40FF10
40FF40FF10
ENDCHAR
STARTCHAR  0420
ENCODING  1056
SWIDTH  1000 0
DWIDTH  5 0
BBX  5 18 0 0
BITMAP
40FFFFFF10
40FF80FF10
40FF40FF10
40FF40FF10
40FF40FF10
40FF40FF10
40FF40FF10
40FF40FF10
40FF40FF10
40FF40FF10
40FF40FF10
40FF40FF10
40FF40FF10
40FF40FF10
40FF40FF10
40FFFFFF10
40FF404000
40FF100000
ENDCHAR
STARTCHAR  0421
ENCODING  1057
SWIDTH  1000 0
DWIDTH  5 0
BBX  5 18 0 0
BITMAP
40FFFFFF10
40FF80FF10
40FF208000
40FF30E000
40FF40FF10
40FF40FF10
40FF40FF10
40FF40FF10
40FF40FF10
40FF40FF10
40FF40FF10
40FF40FF10
40FF40FF10
40FF40FF10
40FF40FF10
40FF40FF10
40FF80FF10
40FFFFFF10
ENDCHAR
STARTCHAR  0422
ENCODING  1058
SWIDTH  1000 0
DWIDTH  5 0
BBX  5 18 0 0
BITMAP
40FF100000
40FF100000
40FF100000
40FFFFFF10
40FF406000
40FF40FF10
40FF40FF10
40FF40FF10
40FF40FF10
40FF40FF10
40FF40FF10
40FF40FF10
40FF40FF10
40FF40FF10
40FF40FF10
40FF40FF10
40FF80FF10
40FFFFFF10
ENDCHAR
STARTCHAR  0423
ENCODING  1059
SWIDTH  1000 0
DWIDTH  5 0
BBX  5 18 0 0
BITMAP
40FF40FF10
40FF40FF10
40FF40FF10
40FFFFFF10
106060FF10
40FF40FF10
40FF40FF10
40FF40FF10
40FF40FF10
40FF40FF10
40FF40FF10
40FF40FF10
40FF40FF10
40FF40FF10
40FF40FF10
40FF40FF10
40FF80FF10
40FFFFFF10
ENDCHAR
STARTCHAR  0424
ENCODING  1060
SWIDTH  1000 0
DWIDTH  7 0
BBX  7 18 0 0
BITMAP
000040FF100000
000040FF100000
000040FF100000
40FFFFFFFFFF10
40FF80FF80FF10
40FF40FF40FF10
40FF40FF40FF10
40FF40FF40FF10
40FF40FF40FF10
40FF40FF40FF10
40FF40FF40FF10
40FF40FF40FF10
40FF40FF40FF10
40FF40FF40FF10
40FFFFFFFFFF10
104060FF404000
000040FF100000
000040FF100000
ENDCHAR
STARTCHAR  0425
ENCODING  1061
SWIDTH  1000 0
DWIDTH  5 0
BBX  5 18 0 0
BITMAP
40FF40FF10
40FF40FF10
40FF40FF10
40FFFFFF10
0040FF2000
40FFFFFF10
40FF40FF10
40FF40FF10
40FF40FF10
40FF40FF10
40FF40FF10
40FF40FF10
40FF40FF10
40FF40FF10
40FF40FF10
40FF40FF10
40FF40FF10
40FF40FF10
ENDCHAR
STARTCHAR  0426
ENCODING  1062
SWIDTH  1000 0
DWIDTH  6 0
BBX  6 20 0 -2
BITMAP
40FF40FF1000
40FF40FF1000
40FF40FF1000
40FF40FF1000
40FF40FF1000
40FF40FF1000
40FF40FF1000
40FF40FF1000
40FF40FF1000
40FF40FF1000
40FF40FF1000
40FF40FF1000
40FF40FF1000
40FF40FF1000
40FF40FF1000
40FF40FF1000
40FF80FF4000
40FFFFFFFF10
00000040FF10
000000104000
ENDCHAR
STARTCHAR  0427
ENCODING  1063
SWIDTH  1000 0
DWIDTH  5 0
BBX  5 18 0 0
BITMAP
40FF40FF10
40FF40FF10
40FF40FF10
40FF40FF10
40FF40FF10
40FF40FF10
40FF40FF10
40FF40FF10
40FF40FF10
40FF40FF10
40FF40FF10
40FF40FF10
40FF40FF10
40FF40FF10
40FF40FF10
40FFFFFF10
104060FF10
000040FF10
ENDCHAR
STARTCHAR  0428
ENCODING  1064
SWIDTH  1000 0
DWIDTH  7 0
BBX  7 18 0 0
BITMAP
40FF40FF40FF10
40FF40FF40FF10
40FF40FF40FF10
40FF40FF40FF10
40FF40FF40FF10
40FF40FF40FF10
40FF40FF40FF10
40FF40FF40FF10
40FF40FF40FF10
40FF40FF40FF10
40FF40FF40FF10
40FF40FF40FF10
40FF40FF40FF10
40FF40FF40FF10
40FF40FF40FF10
40FF40FF40FF10
40FF80FF80FF10
40FFFFFFFFFF10
ENDCHAR
STARTCHAR  0429
ENCODING  1065
SWIDTH  1000 0
DWIDTH  7 0
BBX  7 20 0 -2
BITMAP
40FF40FF40FF10
40FF40FF40FF10
40FF40FF40FF10
40FF40FF40FF10
40FF40FF40FF10
40FF40FF40FF10
40FF40FF40FF10
40FF40FF40FF10
40FF40FF40FF10
40FF40FF40FF10
40FF40FF40FF10
40FF40FF40FF10
40FF40FF40FF10
40FF40FF40FF10
40FF40FF40FF10
40FF40FF40FF10
40FF80FF80FF10
40FFFFFFFFFF10
0000000040FF10
00000000104000
ENDCHAR
STARTCHAR  042A
ENCODING  1066
SWIDTH  1000 0
DWIDTH  5 0
BBX  5 18 0 0
BITMAP
E0FF100000
60FF100000
40FF100000
40FFFFFF10
40FF80FF10
40FF40FF10
40FF40FF10
40FF40FF10
40FF40FF10
40FF40FF10
40FF40FF10
40FF40FF10
40FF40FF10
40FF40FF10
40FF40FF10
40FF40FF10
40FF80FF10
40FFFFFF10
ENDCHAR
STARTCHAR  042B
ENCODING  1067
SWIDTH  1000 0
DWIDTH  7 0
BBX  7 18 0 0
BITMAP
40FF100040FF10
40FF100040FF10
40FF100040FF10
40FFFFFF40FF10
40FF80FF40FF10
40FF40FF40FF10
40FF40FF40FF10
40FF40FF40FF10
40FF40FF40FF10
40FF40FF40FF10
40FF40FF40FF10
40FF40FF40FF10
40FF40FF40FF10
40FF40FF40FF10
40FF40FF40FF10
40FF40FF40FF10
40FF80FF40FF10
40FFFFFF40FF10
ENDCHAR
STARTCHAR  042C
ENCODING  1068
SWIDTH  1000 0
DWIDTH  5 0
BBX  5 18 0 0
BITMAP
40FF100000
40FF100000
40FF100000
40FFFFFF10
40FF80FF10
40FF40FF10
40FF40FF10
40FF40FF10
40FF40FF10
40FF40FF10
40FF40FF10
40FF40FF10
40FF40FF10
40FF40FF10
40FF40FF10
40FF40FF10
40FF80FF10
40FFFFFF10
ENDCHAR
STARTCHAR  042D
ENCODING  1069
SWIDTH  1000 0
DWIDTH  5 0
BBX  5 18 0 0
BITMAP
40FFFFFF10
30E060FF10
000040FF10
40FFFFFF10
106060FF10
40FF40FF10
40FF40FF10
40FF40FF10
40FF40FF10
40FF40FF10
40FF40FF10
40FF40FF10
40FF40FF10
40FF40FF10
40FF40FF10
40FF40FF10
40FF80FF10
40FFFFFF10
ENDCHAR
STARTCHAR  042E
ENCODING  1070
SWIDTH  1000 0
DWIDTH  7 0
BBX  7 18 0 0
BITMAP
40FF40FFFFFF10
40FF40FF80FF10
40FF40FF40FF10
40FFFFFF40FF10
40FF80FF40FF10
40FF40FF40FF10
40FF40FF40FF10
40FF40FF40FF10
40FF40FF40FF10
40FF40FF40FF10
40FF40FF40FF10
40FF40FF40FF10
40FF40FF40FF10
40FF40FF40FF10
40FF40FF40FF10
40FF40FF40FF10
40FF40FF80FF10
40FF40FFFFFF10
ENDCHAR
STARTCHAR  042F
ENCODING  1071
SWIDTH  1000 0
DWIDTH  5 0
BBX  5 18 0 0
BITMAP
40FFFFFF10
40FF80FF10
40FF40FF10
40FFFFFF10
104080FF10
40FFFFFF10
40FF60FF10
40FF40FF10
40FF40FF10
40FF40FF10
40FF40FF10
40FF40FF10
40FF40FF10
40FF40FF10
40FF40FF10
40FF40FF10
40FF40FF10
40FF40FF10
ENDCHAR
STARTCHAR  0430
ENCODING  1072
SWIDTH  1000 0
DWIDTH  5 0
BBX  5 15 0 0
BITMAP
40FFFFFF10
104080FF10
40FFFFFF10
40FF60FF10
40FF40FF10
40FF40FF10
40FF40FF10
40FF40FF10
40FF40FF10
40FF40FF10
40FF40FF10
40FF40FF10
40FF40FF10
40FF80FF10
40FFFFFF10
ENDCHAR
STARTCHAR  0431
ENCODING  1073
SWIDTH  1000 0
DWIDTH  5 0
BBX  5 18 0 0
BITMAP
0010101000
40FFFFFF10
40FF404000
40FFFFFF10
40FF80FF10
40FF40FF10
40FF40FF10
40FF40FF10
40FF40FF10
40FF40FF10
40FF40FF10
40FF40FF10
40FF40FF10
40FF40FF10
40FF40FF10
40FF40FF10
40FF80FF10
40FFFFFF10
ENDCHAR
STARTCHAR  0432
ENCODING  1074
SWIDTH  1000 0
DWIDTH  5 0
BBX  5 15 0 0
BITMAP
40FFFFFF10
40FF80FF10
40FF40FF10
40FFFFFF10
40FF60FF10
40FF40FF10
40FF40FF10
40FF40FF10
40FF40FF10
40FF40FF10
40FF40FF10
40FF40FF10
40FF40FF10
40FF80FF10
40FFFFFF10
ENDCHAR
STARTCHAR  0433
ENCODING  1075
SWIDTH  1000 0
DWIDTH  4 0
BBX  3 15 0 0
BITMAP
40FFFF
40FF40
40FF10
40FF10
40FF10
40FF10
40FF10
40FF10
40FF10
40FF10
40FF10
40FF10
40FF10
40FF10
40FF10
ENDCHAR
STARTCHAR  0434
ENCODING  1076
SWIDTH  1000 0
DWIDTH  6 0
BBX  5 16 1 -1
BITMAP
40FFFFFF10
40FF60FF10
40FF40FF10
40FF40FF10
40FF40FF10
40FF40FF10
40FF40FF10
40FF40FF10
40FF40FF10
40FF40FF10
40FF40FF10
40FF40FF10
40FF40FF10
60FF60FF10
FFFFFFFF10
40FF40FF10
ENDCHAR
STARTCHAR  0435
ENCODING  1077
SWIDTH  1000 0
DWIDTH  5 0
BBX  5 15 0 0
BITMAP
40FFFFFF10
40FF80FF10
40FF40FF10
40FFFFFF10
40FF406000
40FF40FF10
40FF40FF10
40FF40FF10
40FF40FF10
40FF40FF10
40FF40FF10
40FF40FF10
40FF40FF10
40FF80FF10
40FFFFFF10
ENDCHAR
STARTCHAR  0436
ENCODING  1078
SWIDTH  1000 0
DWIDTH  7 0
BBX  7 15 0 0
BITMAP
40FF40FF40FF10
40FF40FF40FF10
40FF40FF40FF10
40FFFFFFFFFF10
40FF60FF60FF10
40FF40FF40FF10
40FF40FF40FF10
40FF40FF40FF10
40FF40FF40FF10
40FF40FF40FF10
40FF40FF40FF10
40FF40FF40FF10
40FF40FF40FF10
40FF40FF40FF10
40FF40FF40FF10
ENDCHAR
STARTCHAR  0437
ENCODING  1079
SWIDTH  1000 0
DWIDTH  5 0
BBX  5 15 0 0
BITMAP
40FFFFFF10
104060FF10
001040FF10
40FFFFFF10
106060FF10
40FF40FF10
40FF40FF10
40FF40FF10
40FF40FF10
40FF40FF10
40FF40FF10
40FF40FF10
40FF40FF10
40FF80FF10
40FFFFFF10
ENDCHAR
STARTCHAR  0438
ENCODING  1080
SWIDTH  1000 0
DWIDTH  5 0
BBX  5 15 0 0
BITMAP
40FF40FF10
40FF40FF10
40FF60FF10
40FFE0FF10
40FFFFFF10
40FF80FF10
40FF40FF10
40FF40FF10
40FF40FF10
40FF40FF10
40FF40FF10
40FF40FF10
40FF40FF10
40FF40FF10
40FF40FF10
ENDCHAR
STARTCHAR  0439
ENCODING  1081
SWIDTH  1000 0
DWIDTH  5 0
BBX  5 18 0 0
BITMAP
1040104000
00E0F0A000
0000000000
40FF40FF10
40FF40FF10
40FF60FF10
40FFE0FF10
40FFFFFF10
40FF80FF10
40FF40FF10
40FF40FF10
40FF40FF10
40FF40FF10
40FF40FF10
40FF40FF10
40FF40FF10
40FF40FF10
40FF40FF10
ENDCHAR
STARTCHAR  043A
ENCODING  1082
SWIDTH  1000 0
DWIDTH  5 0
BBX  5 15 0 0
BITMAP
40FF40FF10
40FF40FF10
40FF40FF10
40FFFFFF10
40FFFFFF10
40FF60FF10
40FF40FF10
40FF40FF10
40FF40FF10
40FF40FF10
40FF40FF10
40FF40FF10
40FF40FF10
40FF40FF10
40FF40FF10
ENDCHAR
STARTCHAR  043B
ENCODING  1083
SWIDTH  1000 0
DWIDTH  5 0
BBX  5 15 0 0
BITMAP
40FFFFFF10
40FF80FF10
40FF40FF10
40FF40FF10
40FF40FF10
40FF40FF10
40FF40FF10
40FF40FF10
40FF40FF10
40FF40FF10
40FF40FF10
40FF40FF10
40FF40FF10
60FF40FF10
E0FF40FF10
ENDCHAR
STARTCHAR  043C
ENCODING  1084
SWIDTH  1000 0
DWIDTH  7 0
BBX  7 15 0 0
BITMAP
40FFFFFFFFFF10
40FF80FF80FF10
40FF40FF40FF10
40FF40FF40FF10
40FF40FF40FF10
40FF40FF40FF10
40FF40FF40FF10
40FF40FF40FF10
40FF40FF40FF10
40FF40FF40FF10
40FF40FF40FF10
40FF40FF40FF10
40FF40FF40FF10
40FF40FF40FF10
40FF40FF40FF10
ENDCHAR
STARTCHAR  043D
ENCODING  1085
SWIDTH  1000 0
DWIDTH  5 0
BBX  5 15 0 0
BITMAP
40FF40FF10
40FF40FF10
40FF40FF10
40FFFFFF10
40FF60FF10
40FF40FF10
40FF40FF10
40FF40FF10
40FF40FF10
40FF40FF10
40FF40FF10
40FF40FF10
40FF40FF10
40FF40FF10
40FF40FF10
ENDCHAR
STARTCHAR  043E
ENCODING  1086
SWIDTH  1000 0
DWIDTH  5 0
BBX  5 15 0 0
BITMAP
40FFFFFF10
40FF80FF10
40FF40FF10
40FF40FF10
40FF40FF10
40FF40FF10
40FF40FF10
40FF40FF10
40FF40FF10
40FF40FF10
40FF40FF10
40FF40FF10
40FF40FF10
40FF80FF10
40FFFFFF10
ENDCHAR
STARTCHAR  043F
ENCODING  1087
SWIDTH  1000 0
DWIDTH  5 0
BBX  5 15 0 0
BITMAP
40FFFFFF10
40FF80FF10
40FF40FF10
40FF40FF10
40FF40FF10
40FF40FF10
40FF40FF10
40FF40FF10
40FF40FF10
40FF40FF10
40FF40FF10
40FF40FF10
40FF40FF10
40FF40FF10
40FF40FF10
ENDCHAR
STARTCHAR  0440
ENCODING  1088
SWIDTH  1000 0
DWIDTH  5 0
BBX  5 15 0 0
BITMAP
40FFFFFF10
40FF80FF10
40FF40FF10
40FF40FF10
40FF40FF10
40FF40FF10
40FF40FF10
40FF40FF10
40FF40FF10
40FF40FF10
40FF40FF10
40FF40FF10
40FFFFFF10
40FF404000
40FF100000
ENDCHAR
STARTCHAR  0441
ENCODING  1089
SWIDTH  1000 0
DWIDTH  5 0
BBX  5 15 0 0
BITMAP
40FFFFFF10
40FF80FF10
40FF40FF10
40FF30C000
40FF30A000
40FF40FF10
40FF40FF10
40FF40FF10
40FF40FF10
40FF40FF10
40FF40FF10
40FF40FF10
40FF40FF10
40FF80FF10
40FFFFFF10
ENDCHAR
STARTCHAR  0442
ENCODING  1090
SWIDTH  1000 0
DWIDTH  5 0
BBX  5 15 0 0
BITMAP
40FF100000
40FF100000
40FF101000
40FFFFFF10
40FF406000
40FF40FF10
40FF40FF10
40FF40FF10
40FF40FF10
40FF40FF10
40FF40FF10
40FF40FF10
40FF40FF10
40FF80FF10
40FFFFFF10
ENDCHAR
STARTCHAR  0443
ENCODING  1091
SWIDTH  1000 0
DWIDTH  5 0
BBX  5 15 0 0
BITMAP
40FF40FF10
40FF40FF10
40FF40FF10
40FFFFFF10
106060FF10
40FF40FF10
40FF40FF10
40FF40FF10
40FF40FF10
40FF40FF10
40FF40FF10
40FF40FF10
40FF40FF10
40FF80FF10
40FFFFFF10
ENDCHAR
STARTCHAR  0444
ENCODING  1092
SWIDTH  1000 0
DWIDTH  7 0
BBX  7 15 0 0
BITMAP
000040FF100000
000040FF100000
001040FF101000
40FFFFFFFFFF10
40FF60FF60FF10
40FF40FF40FF10
40FF40FF40FF10
40FF40FF40FF10
40FF40FF40FF10
40FF40FF40FF10
40FF40FF40FF10
40FFFFFFFFFF10
104060FF404000
000040FF100000
000040FF100000
ENDCHAR
STARTCHAR  0445
ENCODING  1093
SWIDTH  1000 0
DWIDTH  5 0
BBX  5 15 0 0
BITMAP
40FF40FF10
40FF40FF10
40FF40FF10
40FFFFFF10
40FFFFFF10
40FFFFFF10
40FF40FF10
40FF40FF10
40FF40FF10
40FF40FF10
40FF40FF10
40FF40FF10
40FF40FF10
40FF40FF10
40FF40FF10
ENDCHAR
STARTCHAR  0446
ENCODING  1094
SWIDTH  1000 0
DWIDTH  6 0
BBX  6 17 0 -2
BITMAP
40FF40FF1000
40FF40FF1000
40FF40FF1000
40FF40FF1000
40FF40FF1000
40FF40FF1000
40FF40FF1000
40FF40FF1000
40FF40FF1000
40FF40FF1000
40FF40FF1000
40FF40FF1000
40FF40FF1000
40FF80FF4000
40FFFFFFFF10
00000040FF10
000000104000
ENDCHAR
STARTCHAR  0447
ENCODING  1095
SWIDTH  1000 0
DWIDTH  5 0
BBX  5 15 0 0
BITMAP
40FF40FF10
40FF40FF10
40FF40FF10
40FF40FF10
40FF40FF10
40FF40FF10
40FF40FF10
40FF40FF10
40FF40FF10
40FF40FF10
40FF40FF10
40FF40FF10
40FFFFFF10
104060FF10
000040FF10
ENDCHAR
STARTCHAR  0448
ENCODING  1096
SWIDTH  1000 0
DWIDTH  7 0
BBX  7 15 0 0
BITMAP
40FF40FF40FF10
40FF40FF40FF10
40FF40FF40FF10
40FF40FF40FF10
40FF40FF40FF10
40FF40FF40FF10
40FF40FF40FF10
40FF40FF40FF10
40FF40FF40FF10
40FF40FF40FF10
40FF40FF40FF10
40FF40FF40FF10
40FF40FF40FF10
40FF80FF80FF10
40FFFFFFFFFF10
ENDCHAR
STARTCHAR  0449
ENCODING  1097
SWIDTH  1000 0
DWIDTH  7 0
BBX  7 17 0 -2
BITMAP
40FF40FF40FF10
40FF40FF40FF10
40FF40FF40FF10
40FF40FF40FF10
40FF40FF40FF10
40FF40FF40FF10
40FF40FF40FF10
40FF40FF40FF10
40FF40FF40FF10
40FF40FF40FF10
40FF40FF40FF10
40FF40FF40FF10
40FF40FF40FF10
40FF80FF80FF10
40FFFFFFFFFF10
0000000040FF10
00000000104000
ENDCHAR
STARTCHAR  044A
ENCODING  1098
SWIDTH  1000 0
DWIDTH  6 0
BBX  5 15 1 0
BITMAP
FFFF100000
60FF101000
40FFFFFF10
40FF60FF10
40FF40FF10
40FF40FF10
40FF40FF10
40FF40FF10
40FF40FF10
40FF40FF10
40FF40FF10
40FF40FF10
40FF40FF10
40FF80FF10
40FFFFFF10
ENDCHAR
STARTCHAR  044B
ENCODING  1099
SWIDTH  1000 0
DWIDTH  7 0
BBX  7 15 0 0
BITMAP
40FF100040FF10
40FF101040FF10
40FFFFFF40FF10
40FF60FF40FF10
40FF40FF40FF10
40FF40FF40FF10
40FF40FF40FF10
40FF40FF40FF10
40FF40FF40FF10
40FF40FF40FF10
40FF40FF40FF10
40FF40FF40FF10
40FF40FF40FF10
40FF80FF40FF10
40FFFFFF40FF10
ENDCHAR
STARTCHAR  044C
ENCODING  1100
SWIDTH  1000 0
DWIDTH  5 0
BBX  5 15 0 0
BITMAP
40FF100000
40FF101000
40FFFFFF10
40FF60FF10
40FF40FF10
40FF40FF10
40FF40FF10
40FF40FF10
40FF40FF10
40FF40FF10
40FF40FF10
40FF40FF10
40FF40FF10
40FF80FF10
40FFFFFF10
ENDCHAR
STARTCHAR  044D
ENCODING  1101
SWIDTH  1000 0
DWIDTH  5 0
BBX  5 15 0 0
BITMAP
40FFFFFF10
30E060FF10
001040FF10
40FFFFFF10
106060FF10
40FF40FF10
40FF40FF10
40FF40FF10
40FF40FF10
40FF40FF10
40FF40FF10
40FF40FF10
40FF40FF10
40FF80FF10
40FFFFFF10
ENDCHAR
STARTCHAR  044E
ENCODING  1102
SWIDTH  1000 0
DWIDTH  7 0
BBX  7 15 0 0
BITMAP
40FF40FFFFFF10
40FF40FF80FF10
40FF40FF40FF10
40FFFFFF40FF10
40FF60FF40FF10
40FF40FF40FF10
40FF40FF40FF10
40FF40FF40FF10
40FF40FF40FF10
40FF40FF40FF10
40FF40FF40FF10
40FF40FF40FF10
40FF40FF40FF10
40FF40FF80FF10
40FF40FFFFFF10
ENDCHAR
STARTCHAR  044F
ENCODING  1103
SWIDTH  1000 0
DWIDTH  5 0
BBX  5 15 0 0
BITMAP
40FFFFFF10
40FF80FF10
40FF40FF10
40FFFFFF10
40FFFFFF10
40FF60FF10
40FF40FF10
40FF40FF10
40FF40FF10
40FF40FF10
40FF40FF10
40FF40FF10
40FF40FF10
40FF40FF10
40FF40FF10
ENDCHAR
STARTCHAR  0451
ENCODING  1105
SWIDTH  1000 0
DWIDTH  5 0
BBX  5 18 0 0
BITMAP
0010001000
40FF40FF10
1040104000
40FFFFFF10
40FF80FF10
40FF40FF10
40FFFFFF10
40FF406000
40FF40FF10
40FF40FF10
40FF40FF10
40FF40FF10
40FF40FF10
40FF40FF10
40FF40FF10
40FF40FF10
40FF80FF10
40FFFFFF10
ENDCHAR
STARTCHAR  2018
ENCODING  8216
SWIDTH  1000 0
DWIDTH  3 0
BBX  3 4 0 14
BITMAP
40E000
40FF10
40FF10
40FF10
ENDCHAR
STARTCHAR  2019
ENCODING  8217
SWIDTH  1000 0
DWIDTH  3 0
BBX  3 4 0 14
BITMAP
40FF10
40FF10
40FF10
10F010
ENDCHAR
STARTCHAR  201C
ENCODING  8220
SWIDTH  1000 0
DWIDTH  5 0
BBX  5 4 0 14
BITMAP
40E040E000
40FF40FF10
40FF40FF10
40FF40FF10
ENDCHAR
STARTCHAR  201D
ENCODING  8221
SWIDTH  1000 0
DWIDTH  5 0
BBX  5 4 0 14
BITMAP
40FF40FF10
40FF40FF10
40FF40FF10
10F020F010
ENDCHAR
ENDFONT
